<svg xmlns="http://www.w3.org/2000/svg" width="32" height="32"><g><circle r="1" stroke-width="0" cx="28" cy="4"/><circle r="1" stroke-width="0" cx="24" cy="4"/><circle r="1" stroke-width="0" cx="20" cy="4"/><circle r="1" stroke-width="0" cx="16" cy="4"/><circle r="1" stroke-width="0" cx="12" cy="4"/><circle r="1" stroke-width="0" cx="8" cy="4"/><circle r="1" stroke-width="0" cx="4" cy="4"/></g><g transform="translate(0 4)"><circle r="1" stroke-width="0" cx="28" cy="4"/><circle r="1" stroke-width="0" cx="24" cy="4"/><circle r="1" stroke-width="0" cx="20" cy="4"/><circle r="1" stroke-width="0" cx="16" cy="4"/><circle r="1" stroke-width="0" cx="12" cy="4"/><circle r="1" stroke-width="0" cx="8" cy="4"/><circle r="1" stroke-width="0" cx="4" cy="4"/></g><g transform="translate(0 8)"><circle r="1" stroke-width="0" cx="28" cy="4"/><circle r="1" stroke-width="0" cx="24" cy="4"/><circle r="1" stroke-width="0" cx="20" cy="4"/><circle r="1" stroke-width="0" cx="16" cy="4"/><circle r="1" stroke-width="0" cx="12" cy="4"/><circle r="1" stroke-width="0" cx="8" cy="4"/><circle r="1" stroke-width="0" cx="4" cy="4"/></g><g transform="translate(0 12)"><circle r="1" stroke-width="0" cx="28" cy="4"/><circle r="1" stroke-width="0" cx="24" cy="4"/><circle r="1" stroke-width="0" cx="20" cy="4"/><circle r="1" stroke-width="0" cx="16" cy="4"/><circle r="1" stroke-width="0" cx="12" cy="4"/><circle r="1" stroke-width="0" cx="8" cy="4"/><circle r="1" stroke-width="0" cx="4" cy="4"/></g><g transform="translate(0 16)"><circle r="1" stroke-width="0" cx="28" cy="4"/><circle r="1" stroke-width="0" cx="24" cy="4"/><circle r="1" stroke-width="0" cx="20" cy="4"/><circle r="1" stroke-width="0" cx="16" cy="4"/><circle r="1" stroke-width="0" cx="12" cy="4"/><circle r="1" stroke-width="0" cx="8" cy="4"/><circle r="1" stroke-width="0" cx="4" cy="4"/></g><g transform="translate(0 20)"><circle r="1" stroke-width="0" cx="28" cy="4"/><circle r="1" stroke-width="0" cx="24" cy="4"/><circle r="1" stroke-width="0" cx="20" cy="4"/><circle r="1" stroke-width="0" cx="16" cy="4"/><circle r="1" stroke-width="0" cx="12" cy="4"/><circle r="1" stroke-width="0" cx="8" cy="4"/><circle r="1" stroke-width="0" cx="4" cy="4"/></g><g transform="translate(0 24)"><circle r="1" stroke-width="0" cx="28" cy="4"/><circle r="1" stroke-width="0" cx="24" cy="4"/><circle r="1" stroke-width="0" cx="20" cy="4"/><circle r="1" stroke-width="0" cx="16" cy="4"/><circle r="1" stroke-width="0" cx="12" cy="4"/><circle r="1" stroke-width="0" cx="8" cy="4"/><circle r="1" stroke-width="0" cx="4" cy="4"/></g></svg>