<svg xmlns="http://www.w3.org/2000/svg" width="85" height="16"><g><polygon points="8 4 0 16 4 16 12 4" stroke="none"/><polygon points="4 4 12 16 8 16 0 4" stroke="none"/><polygon points="6 7 12 16 8 16 4 10" stroke="none" fill="#fa0"/><polygon points="6 7 8 10 6 13 4 10" fill="red"/></g><g><circle r="4" stroke-width="10" cx="15" cy="12"/><rect width="6" height="1.75" x="15" y="11.5" fill="#fa0"/></g><g><rect width="12" height="6" x="23" y="10"/><circle r="6" cx="29" cy="10"/></g><g transform="translate(20)"><rect width="12" height="6" x="25" y="10"/><circle r="6" cx="31" cy="10"/></g><circle r="4" cx="40" cy="12"/><g fill="#eca413" transform="translate(2)"><polygon points="60 4 60 8 62 10 64 8 64 4"/><polygon points="60 12 60 16 64 16 64 12 68 12 68 8 64 8" fill="#000"/><polygon points="60 12 56 12 56 8 60 8 62 10" fill="red"/></g><g fill="#eca413" transform="translate(15)"><polygon points="60 4 60 8 62 10 64 8 64 4"/><polygon points="60 12 60 16 64 16 64 12 68 12 68 8 64 8" fill="#000"/><polygon points="60 12 56 12 56 8 60 8 62 10" fill="red"/></g></svg>